<svg width="24" height="24" viewBox="0 0 24 24" fill="none" xmlns="http://www.w3.org/2000/svg">
<g clip-path="url(#clip0_184_558)">
<path d="M23.6597 11.994C23.6597 18.5159 18.3612 23.8222 11.828 23.8222C5.30623 23.8222 0 18.5159 0 11.994C0 5.46452 5.30623 0.166016 11.828 0.166016C18.3612 0.166016 23.6597 5.46452 23.6597 11.994ZM10.5956 7.09394V13.1697L10.6773 14.848L10.0841 14.1152L8.51632 12.4489C8.30344 12.2164 7.9957 12.0861 7.68592 12.0861C7.10446 12.0861 6.6014 12.52 6.6014 13.1334C6.6014 13.455 6.72459 13.6989 6.94573 13.9159L10.8704 17.6937C11.1987 18.0111 11.5075 18.1153 11.8358 18.1153C12.1677 18.1153 12.4765 18.0111 12.8048 17.6937L16.7218 13.9159C16.9506 13.6989 17.0738 13.455 17.0738 13.1334C17.0738 12.52 16.5629 12.0861 15.9815 12.0861C15.6718 12.0861 15.3718 12.2164 15.1588 12.4489L13.591 14.1152L13.0008 14.8443L13.0873 13.1697V7.09394C13.0873 6.42902 12.5301 5.87286 11.8358 5.87286C11.1487 5.87286 10.5956 6.42902 10.5956 7.09394Z" fill="black" fill-opacity="0.85"/>
</g>
<defs>
<clipPath id="clip0_184_558">
<rect width="24" height="23.6675" fill="white" transform="translate(0 0.166016)"/>
</clipPath>
</defs>
</svg>
