<svg width="24" height="24" viewBox="0 0 24 24" fill="none" xmlns="http://www.w3.org/2000/svg">
<g clip-path="url(#clip0_140_592)">
<path d="M3.31521 20.5276C3.90159 21.1022 4.72656 21.1368 5.38801 20.4866L16.4031 9.48322L18.7751 6.91254C19.3635 6.28679 19.3114 5.52841 18.8166 5.03416C18.3181 4.52074 17.5368 4.44194 16.9078 5.04534L14.3334 7.4136L3.33011 18.4324C2.64258 19.1274 2.74001 19.9635 3.31521 20.5276ZM17.9286 11.9501V16.36C17.9286 17.1797 18.5587 17.8513 19.3453 17.8513C20.1314 17.8513 20.7955 17.1925 20.7955 16.3318L20.7913 4.59174C20.7913 3.66982 20.1783 3.04883 19.2446 3.04883H7.49287C6.61676 3.04883 5.98139 3.70498 5.98139 4.48735C5.98139 5.26598 6.65672 5.89178 7.46463 5.89178H11.7104L18.2099 5.6425L17.9286 11.9501Z" fill="#191970"/>
</g>
<defs>
<clipPath id="clip0_140_592">
<rect width="18.3028" height="17.9325" fill="white" transform="translate(2.84863 3.03418)"/>
</clipPath>
</defs>
</svg>
