<svg width="24" height="24" viewBox="0 0 24 24" fill="none" xmlns="http://www.w3.org/2000/svg">
<g clip-path="url(#clip0_188_610)">
<path d="M12.5791 7.24944L10.7663 9.07015C11.9723 9.19345 12.8884 9.60451 13.517 10.233C15.3299 12.0425 15.326 14.5851 13.5347 16.3763L9.86823 20.0319C8.06608 21.8306 5.54188 21.8346 3.73577 20.0324C1.92273 18.2154 1.9267 15.6913 3.72538 13.8891L5.39305 12.2249C5.01177 11.3618 4.86968 10.2676 5.11771 9.32729L2.04284 12.3808C-0.68226 15.0961 -0.683262 18.9666 2.05374 21.7036C4.80163 24.4549 8.66174 24.4401 11.3765 21.7254L15.2133 17.8846C17.9355 15.1624 17.9468 11.2989 15.199 8.56182C14.5992 7.95861 13.7449 7.47527 12.5791 7.24944ZM11.0941 16.587L12.9069 14.7663C11.7009 14.6505 10.7847 14.2355 10.1562 13.607C8.3467 11.7939 8.3472 9.25486 10.1419 7.46361L13.801 3.80798C15.6071 2.00584 18.1314 2.00187 19.9409 3.81145C21.7504 5.62103 21.7391 8.15613 19.9478 9.94738L18.2836 11.6116C18.6615 12.4855 18.7961 13.5689 18.5589 14.5126L21.6339 11.4556C24.3554 8.74039 24.36 4.87731 21.6229 2.13288C18.8716 -0.615012 15.0114 -0.600151 12.2893 2.12199L8.46336 5.95192C5.74122 8.67406 5.72982 12.5377 8.47425 15.2747C9.07747 15.8778 9.92829 16.3612 11.0941 16.587Z" fill="black" fill-opacity="0.85"/>
</g>
<defs>
<clipPath id="clip0_188_610">
<rect width="24" height="23.8486" fill="white" transform="translate(0 0.0761719)"/>
</clipPath>
</defs>
</svg>
