<svg width="24" height="24" viewBox="0 0 24 24" fill="none" xmlns="http://www.w3.org/2000/svg">
<g clip-path="url(#clip0_140_570)">
<path d="M18.8045 2.89132L2.69631 19.0032C2.14136 19.5545 2.12964 20.5509 2.70749 21.1245C3.28906 21.6943 4.29295 21.6832 4.84045 21.1357L20.9486 5.02747C21.5148 4.46134 21.519 3.48354 20.9337 2.90623C20.3484 2.32093 19.3823 2.30921 18.8045 2.89132ZM20.9486 18.9958L4.84045 2.8876C4.28923 2.33211 3.2848 2.30921 2.70749 2.9025C2.13391 3.4878 2.14509 4.47252 2.69631 5.02374L18.8045 21.1319C19.3706 21.6981 20.3564 21.7023 20.9337 21.1208C21.511 20.5355 21.5148 19.5656 20.9486 18.9958Z" fill="#FF2D55"/>
</g>
<defs>
<clipPath id="clip0_140_570">
<rect width="19.446" height="19.1136" fill="white" transform="translate(2.2771 2.44336)"/>
</clipPath>
</defs>
</svg>
