<svg width="24" height="24" viewBox="0 0 24 24" fill="none" xmlns="http://www.w3.org/2000/svg">
<g clip-path="url(#clip0_140_581)">
<path d="M13.8584 21.1866C14.2253 21.1866 14.5795 21.0327 14.8884 20.728L22.5845 13.0554C22.8748 12.7731 23.0404 12.3731 23.0404 11.9721C23.0404 11.5711 22.8748 11.1711 22.5845 10.8888L14.9044 3.22844C14.5795 2.89983 14.2253 2.75391 13.8584 2.75391C13.0159 2.75391 12.4252 3.3472 12.4252 4.14555C12.4252 4.57213 12.5972 4.91992 12.8667 5.18568L15.4917 7.83519L19.9834 11.9721L15.4917 16.109L12.8667 18.7548C12.5972 19.0088 12.4252 19.3683 12.4252 19.7949C12.4252 20.5933 13.0159 21.1866 13.8584 21.1866ZM2.10124 13.4324H15.923L20.1921 13.1906C20.9446 13.148 21.4516 12.6985 21.4516 11.9721C21.4516 11.2457 20.9446 10.7962 20.1921 10.7536L15.923 10.5118H2.10124C1.20866 10.5118 0.60791 11.1056 0.60791 11.9721C0.60791 12.8386 1.20866 13.4324 2.10124 13.4324Z" fill="#0084FF"/>
</g>
<defs>
<clipPath id="clip0_140_581">
<rect width="22.784" height="18.4928" fill="white" transform="translate(0.60791 2.75391)"/>
</clipPath>
</defs>
</svg>
