<svg width="24" height="24" viewBox="0 0 24 24" fill="none" xmlns="http://www.w3.org/2000/svg">
<g clip-path="url(#clip0_98_365)">
<path d="M12.9422 2.65093C12.6271 1.76415 11.3729 1.76415 11.0578 2.65093L9.64536 6.62454C9.48092 7.08719 9.00492 7.36201 8.52204 7.2731L4.37459 6.50945C3.44902 6.33903 2.82197 7.42511 3.43234 8.14147L6.1674 11.3514C6.48584 11.7252 6.48584 12.2748 6.1674 12.6486L3.43234 15.8585C2.82197 16.5749 3.44902 17.661 4.37459 17.4905L8.52203 16.7269C9.00492 16.638 9.48092 16.9128 9.64536 17.3755L11.0578 21.3491C11.3729 22.2359 12.6271 22.2359 12.9422 21.3491L14.3546 17.3755C14.5191 16.9128 14.9951 16.638 15.478 16.7269L19.6254 17.4905C20.551 17.661 21.178 16.5749 20.5677 15.8585L17.8326 12.6486C17.5142 12.2748 17.5142 11.7252 17.8326 11.3514L20.5677 8.14147C21.178 7.42511 20.551 6.33903 19.6254 6.50945L15.478 7.2731C14.9951 7.36201 14.5191 7.08719 14.3546 6.62454L12.9422 2.65093Z" fill="url(#paint0_linear_98_365)"/>
</g>
<defs>
<linearGradient id="paint0_linear_98_365" x1="12" y1="0" x2="12" y2="24" gradientUnits="userSpaceOnUse">
<stop stop-color="#FDAF42"/>
<stop offset="1" stop-color="#FFD292"/>
</linearGradient>
<clipPath id="clip0_98_365">
<rect width="24" height="24" fill="white"/>
</clipPath>
</defs>
</svg>
