<svg width="24" height="24" viewBox="0 0 24 24" fill="none" xmlns="http://www.w3.org/2000/svg">
<g clip-path="url(#clip0_98_366)">
<path d="M12.953 2.99779C12.6576 2.06841 11.3424 2.06841 11.047 2.99779L10.201 5.65902C10.0132 6.24971 9.33881 6.52906 8.78834 6.24416L6.30836 4.9606C5.44226 4.51235 4.51235 5.44226 4.9606 6.30835L6.24416 8.78834C6.52906 9.3388 6.24971 10.0132 5.65902 10.201L2.99779 11.047C2.06841 11.3424 2.06841 12.6576 2.99779 12.953L5.65902 13.799C6.24971 13.9868 6.52906 14.6612 6.24416 15.2117L4.96061 17.6916C4.51235 18.5577 5.44226 19.4877 6.30835 19.0394L8.78834 17.7558C9.3388 17.4709 10.0132 17.7503 10.201 18.341L11.047 21.0022C11.3424 21.9316 12.6576 21.9316 12.953 21.0022L13.799 18.341C13.9868 17.7503 14.6612 17.4709 15.2117 17.7558L17.6916 19.0394C18.5577 19.4877 19.4877 18.5577 19.0394 17.6916L17.7558 15.2117C17.4709 14.6612 17.7503 13.9868 18.341 13.799L21.0022 12.953C21.9316 12.6576 21.9316 11.3424 21.0022 11.047L18.341 10.201C17.7503 10.0132 17.4709 9.33881 17.7558 8.78834L19.0394 6.30835C19.4877 5.44226 18.5577 4.51235 17.6916 4.9606L15.2117 6.24416C14.6612 6.52906 13.9868 6.24971 13.799 5.65902L12.953 2.99779Z" fill="url(#paint0_linear_98_366)"/>
</g>
<defs>
<linearGradient id="paint0_linear_98_366" x1="12" y1="0" x2="12" y2="24" gradientUnits="userSpaceOnUse">
<stop stop-color="#42A4FD"/>
<stop offset="1" stop-color="#99CEFF"/>
</linearGradient>
<clipPath id="clip0_98_366">
<rect width="24" height="24" fill="white"/>
</clipPath>
</defs>
</svg>
