<svg width="24" height="24" viewBox="0 0 24 24" fill="none" xmlns="http://www.w3.org/2000/svg">
<g clip-path="url(#clip0_98_367)">
<path d="M11.0886 2.01786C11.443 1.23334 12.557 1.23334 12.9114 2.01786L15.578 7.92221C15.6782 8.14407 15.8559 8.32176 16.0778 8.42196L21.9821 11.0886C22.7667 11.443 22.7667 12.557 21.9821 12.9114L16.0778 15.578C15.8559 15.6782 15.6782 15.8559 15.578 16.0778L12.9114 21.9821C12.557 22.7667 11.443 22.7667 11.0886 21.9821L8.42196 16.0778C8.32176 15.8559 8.14407 15.6782 7.92221 15.578L2.01786 12.9114C1.23334 12.557 1.23334 11.443 2.01786 11.0886L7.92221 8.42196C8.14407 8.32176 8.32176 8.14407 8.42196 7.92221L11.0886 2.01786Z" fill="url(#paint0_linear_98_367)"/>
</g>
<defs>
<linearGradient id="paint0_linear_98_367" x1="12" y1="0" x2="12" y2="24" gradientUnits="userSpaceOnUse">
<stop stop-color="#00D312"/>
<stop offset="1" stop-color="#91FF9B"/>
</linearGradient>
<clipPath id="clip0_98_367">
<rect width="24" height="24" fill="white"/>
</clipPath>
</defs>
</svg>
